<?xml version="1.0" encoding="UTF-8"?>
<svg id="Layer_2" data-name="Layer 2" xmlns="http://www.w3.org/2000/svg" xmlns:xlink="http://www.w3.org/1999/xlink" viewBox="0 0 391.37 420.8">
  <defs>
    <style>
      .cls-1 {
        fill: url(#linear-gradient-8);
      }

      .cls-2 {
        fill: url(#linear-gradient-7);
      }

      .cls-3 {
        fill: url(#linear-gradient-5);
      }

      .cls-4 {
        fill: url(#linear-gradient-6);
      }

      .cls-5 {
        fill: url(#linear-gradient-9);
      }

      .cls-6 {
        fill: url(#linear-gradient-4);
      }

      .cls-7 {
        fill: url(#linear-gradient-3);
      }

      .cls-8 {
        fill: url(#linear-gradient-2);
      }

      .cls-9 {
        fill: url(#linear-gradient);
      }

      .cls-10 {
        fill: url(#linear-gradient-10);
      }

      .cls-11 {
        fill: url(#linear-gradient-11);
      }

      .cls-12 {
        fill: url(#linear-gradient-12);
      }

      .cls-13 {
        fill: url(#linear-gradient-13);
      }

      .cls-14 {
        fill: url(#linear-gradient-19);
      }

      .cls-15 {
        fill: url(#linear-gradient-14);
      }

      .cls-16 {
        fill: url(#linear-gradient-21);
      }

      .cls-17 {
        fill: url(#linear-gradient-20);
      }

      .cls-18 {
        fill: url(#linear-gradient-22);
      }

      .cls-19 {
        fill: url(#linear-gradient-23);
      }

      .cls-20 {
        fill: url(#linear-gradient-28);
      }

      .cls-21 {
        fill: url(#linear-gradient-25);
      }

      .cls-22 {
        fill: url(#linear-gradient-15);
      }

      .cls-23 {
        fill: url(#linear-gradient-16);
      }

      .cls-24 {
        fill: url(#linear-gradient-17);
      }

      .cls-25 {
        fill: url(#linear-gradient-18);
      }

      .cls-26 {
        fill: url(#linear-gradient-27);
      }

      .cls-27 {
        fill: url(#linear-gradient-24);
      }

      .cls-28 {
        fill: url(#linear-gradient-26);
      }

      .cls-29 {
        fill: url(#linear-gradient-29);
      }
    </style>
    <linearGradient id="linear-gradient" x1="-8.52" y1="-56" x2="399.48" y2="490" gradientUnits="userSpaceOnUse">
      <stop offset=".04" stop-color="#56ba54"/>
      <stop offset=".99" stop-color="#a760a6"/>
    </linearGradient>
    <linearGradient id="linear-gradient-2" x1="115.38" y1="-148.59" x2="523.38" y2="397.41" xlink:href="#linear-gradient"/>
    <linearGradient id="linear-gradient-3" x1="87.13" y1="-127.48" x2="495.13" y2="418.52" xlink:href="#linear-gradient"/>
    <linearGradient id="linear-gradient-4" x1="1.57" y1="-63.55" x2="409.57" y2="482.45" xlink:href="#linear-gradient"/>
    <linearGradient id="linear-gradient-5" x1="27.8" y1="-83.14" x2="435.8" y2="462.86" xlink:href="#linear-gradient"/>
    <linearGradient id="linear-gradient-6" x1="134.85" y1="-163.14" x2="542.85" y2="382.86" xlink:href="#linear-gradient"/>
    <linearGradient id="linear-gradient-7" x1="42.84" y1="-94.38" x2="450.84" y2="451.62" xlink:href="#linear-gradient"/>
    <linearGradient id="linear-gradient-8" x1="110.91" y1="-145.25" x2="518.91" y2="400.75" xlink:href="#linear-gradient"/>
    <linearGradient id="linear-gradient-9" x1="142.33" y1="-168.73" x2="550.33" y2="377.27" xlink:href="#linear-gradient"/>
    <linearGradient id="linear-gradient-10" x1="-2.95" y1="-60.16" x2="405.05" y2="485.84" xlink:href="#linear-gradient"/>
    <linearGradient id="linear-gradient-11" x1="36.73" y1="-89.81" x2="444.73" y2="456.19" xlink:href="#linear-gradient"/>
    <linearGradient id="linear-gradient-12" x1="140.51" y1="-167.37" x2="548.51" y2="378.63" xlink:href="#linear-gradient"/>
    <linearGradient id="linear-gradient-13" x1="-68.23" y1="-11.39" x2="339.77" y2="534.61" xlink:href="#linear-gradient"/>
    <linearGradient id="linear-gradient-14" x1="11.3" y1="-70.81" x2="419.3" y2="475.19" xlink:href="#linear-gradient"/>
    <linearGradient id="linear-gradient-15" x1="133.48" y1="-162.11" x2="541.48" y2="383.89" xlink:href="#linear-gradient"/>
    <linearGradient id="linear-gradient-16" x1="50.73" y1="-100.28" x2="458.73" y2="445.72" xlink:href="#linear-gradient"/>
    <linearGradient id="linear-gradient-17" x1="-52.65" y1="-23.03" x2="355.35" y2="522.97" xlink:href="#linear-gradient"/>
    <linearGradient id="linear-gradient-18" x1="103.83" y1="-139.96" x2="511.83" y2="406.04" xlink:href="#linear-gradient"/>
    <linearGradient id="linear-gradient-19" x1="19.96" y1="-77.29" x2="427.96" y2="468.71" xlink:href="#linear-gradient"/>
    <linearGradient id="linear-gradient-20" x1="83.84" y1="-125.02" x2="491.84" y2="420.98" xlink:href="#linear-gradient"/>
    <linearGradient id="linear-gradient-21" x1="-79.68" y1="-2.83" x2="328.32" y2="543.17" xlink:href="#linear-gradient"/>
    <linearGradient id="linear-gradient-22" x1="26.14" y1="-81.91" x2="434.14" y2="464.09" xlink:href="#linear-gradient"/>
    <linearGradient id="linear-gradient-23" x1="-1.51" y1="-61.24" x2="406.49" y2="484.76" xlink:href="#linear-gradient"/>
    <linearGradient id="linear-gradient-24" x1="63.38" y1="-109.73" x2="471.38" y2="436.27" xlink:href="#linear-gradient"/>
    <linearGradient id="linear-gradient-25" x1="-49.21" y1="-25.6" x2="358.79" y2="520.4" xlink:href="#linear-gradient"/>
    <linearGradient id="linear-gradient-26" x1="85.99" y1="-126.62" x2="493.99" y2="419.38" xlink:href="#linear-gradient"/>
    <linearGradient id="linear-gradient-27" x1="-127.56" y1="32.95" x2="280.44" y2="578.95" xlink:href="#linear-gradient"/>
    <linearGradient id="linear-gradient-28" x1="-65.79" y1="-13.21" x2="342.21" y2="532.79" xlink:href="#linear-gradient"/>
    <linearGradient id="linear-gradient-29" x1="-126.91" y1="32.46" x2="281.09" y2="578.46" xlink:href="#linear-gradient"/>
  </defs>
  <g id="Layer_1-2" data-name="Layer 1">
    <g>
      <path class="cls-9" d="M383.03,201.69c-5.29-2.5-11.34-1.82-16.43.83-5.83,2.92-8.84,8.16-14.51,11.42-7.22,4.41-17.01,5.13-25.29,5.08,3.56-2.7,7.07-4.96,10.07-8.34,4.75-5.44,7.42-12.21,7.61-19.44,3.01-4,7.02-6.31,8.58-11.49,1.53-4.45-.05-7.98-1.56-12.09-1.25-2.97-.46-5.6-.01-8.61-2.49,2.32-4.91,4.6-7.74,6.51-2.88,2.01-6.21,3.86-8.33,6.72-2.47,3.1-2.48,7.66-.69,11.09,1.78,3.61,5.63,6.14,7.82,9.61-1.45,5.48-5.81,10.68-9.67,14.75-5.97,5.52-13.68,10.23-21.79,11.57-7.66.72-15.62-.49-23.16-1.83,7.56-3.21,14.12-8.19,18.39-15.3,4.17-6.76,5.37-14.32,5.42-22.15-4.18,6.25-5.19,13.64-9.72,19.82-5.3,7-12.33,12.75-20.95,15-5.29,1.3-9.78-.08-15-.69-7.72-1.03-15.54-1.07-23.19.55,5.78-4.61,11.32-9.3,15.81-15.23,9.88-12.83,17.53-28.55,25.33-42.72,3.07-5.01,5.82-10.17,8.58-15.36,2.5-4.73,5.65-8.94,10.28-11.77,6.55-3.96,14.15-6.48,21.03-9.86,8.12-4,16.31-7.71,22.51-14.54,2.22-2.37,3.31-5.24,4.26-8.28-7.97,6.76-16.97,11.54-26.05,16.6-8.61,4.12-17.43,7.81-26,12.04,3.43-7.66,4.5-16.31,8.66-23.5,3.53-5.82,8.7-8.74,13.9-12.73-4.63.02-9.06.89-12.69,3.94-5.53,4.35-7.59,10.73-10.3,16.96-4.01-8.98-8.86-19.4-8.54-29.36.01-2.19.05-4.38-.01-6.57-2.7,5.37-4.18,11.61-3.7,17.62,1.31,9.03,7.32,17.02,8.41,25.94.78,5.33-1.16,10.35-3.28,15.14-4.19,8.9-9.15,17.13-13.7,25.86,4.02-20.66-1.57-43.74-15.83-59.47-3.77-4.14-7.7-7.8-10.17-12.95-2.99-5.56-1.83-11.86,1.06-17.18,2.2-3.85,6.43-7.87,7.05-12.34-.02-1.49-.11-2.98-.27-4.47-4.95,6.59-10.9,11.25-13.82,19.21-3.26-2.29-7.03-3.67-10.29-5.9-.45-2.09-.42-4.29-.88-6.37-.67-2.6-2.4-5-3.17-7.53-.45-2.07-.41-4.27-.55-6.37-3.97,4.51-8.93,10.06-9.13,16.38-.32,3.52,2.55,6.85,5.69,8.03,2.2.87,4.69-.33,6.9-.88,2.69,2.95,6.06,5.3,8.51,8.43,1.96,2.99,2.68,6.81,4.03,10.12-5.87-3.68-12.18-5.97-18.62-8.42-4.05-1.54-8.33-3.56-11.47-6.6-2.52-2.41-4.01-5.18-6.05-7.98.32,3.95.2,8.89,2.74,12.18,2.69,3.56,7.77,4.98,11.73,6.61,10.23,4.3,20.22,7.55,28.54,15.2,4.78,4.62,9.24,9.86,12.4,15.72,2.42,4.34,3.8,9.13,5.36,13.85-9.12-8.72-18.96-16.17-31.06-20.22-8.2-2.79-17.8-3.66-25.9-.11-10.69,4.55-16.72,17.94-13.17,28.93,2.39-8.7,5.21-17.55,13.03-22.94,7.22-4.75,16.42-3.64,24.18-.9,11.13,3.86,21.53,10.62,29.21,19.58,4.26,4.79,6.13,11.06,6.06,17.4-.19,12.72-4.64,24.41-11.31,35.1-5.15,8.16-11.09,16.26-18.46,22.55-3.67,3.28-7.09,6.56-11.66,8.59,5.44-7.1,11.73-13.16,16.22-21.09,5.04-8.17,7.89-17.5,7.5-27.15-.17-8.28-4.55-15.51-5.69-24-.79-5.17-.28-10.19.22-15.34-4.28,5.3-4.99,11.76-4.5,18.36.55,6.69,3.71,12.33,4.54,18.98,1.11,8.62-1.29,17.24-5.54,24.71-4.86,8.84-11.92,15.85-18.96,23.05-6.89,7.11-14.05,13.21-19.16,21.85-2.7,4.25-4.41,8.88-5.98,13.64-4.36-8.2-8.86-15.8-16.09-21.84-6.99-6.44-15.85-9.62-22.89-16.07-10.39-9.68-17.14-23.07-17.92-37.33-.75-11.24,2.66-21.98,5.08-32.8.71-3.15,1.78-6.2,2.54-9.33-6.74,6.84-9.78,15.39-11.76,24.6-2.11,9.87-2.23,20.05.89,29.72,1.41,5.74,4.58,10.37,6.93,15.67-17.44-13.97-27.86-36.53-27.12-58.87.55-12.87,7.73-24.23,16.59-33.13,5.72-5.28,12.17-10.44,19.28-13.67,9.7-4.86,21.52-5.92,32.02-8.08,5.78-1.24,11.33-3.05,15.56-7.39,2.98-3.23,4.57-7.83,5.31-12.1-3.11,3.58-5.23,7.29-9.25,10.05-3.14,2.29-6.7,3.57-10.39,4.67,2.2-5.86,4.99-10.88,4.99-17.35.35-7.9-4.12-14.25-9.35-19.69,2.76-5.05,5.76-9.27,5.82-15.31.1-5.31-2.25-9.2-3.87-14.02-1.35-3.7-.3-7.61.18-11.37-2.65,3.33-4.59,6.92-7.54,10.02-3.31,3.55-6.71,6.47-9.01,10.89-2.41,4.92-1.51,10.78,1.66,15.14,4.27,5.75,10.82,8.03,14.58,14.45,3.93,5.77,3.2,13.19.58,19.32-1.5,3.35-3.69,7.22-7.33,8.56-4.04,1.38-8.42,1.86-12.58,2.85-5.57,1.14-10.94,3.11-16.02,5.66-4.32,2.19-7.72,5.12-11.65,7.87,3.22-5.86,6.03-11.44,5.67-18.37-.54-7.73-2.93-15.31-4.11-22.98-1.16-7.56-3.75-14.74-5.26-22.2,6.14-3.09,13.87-7.14,16.84-13.69,2.39-5.22.56-10.25,1.23-15.66.54-2.57,2.14-5,3.29-7.36-2.42,1.37-4.7,2.85-6.91,4.54-4.08,3.07-9.02,4.48-12.98,7.99-5.15,4.3-6.35,12.41-3.65,18.35.86,2.15,1.76,4.53,1.81,6.86-.39,2.83-1.65,5.17-1.16,8.14,1.09,7.67,1.7,15.51,3.51,23.02,1.69,7.43,3.53,14.62.74,22.07-2.62,6.46-6.87,12.41-10.46,18.37-4.3,7.3-8.8,13.78-11.28,22.02-2.12,6.43-2.52,13.03-2.27,19.75-4.53-7.63-8.18-15.68-11.17-24.03-4.11-12.12-4.86-24.49-4.84-37.19-.2-6.13-.95-14.08-5.07-18.95-1.1,3.18-.06,7.1.11,10.43.79,10.4-.16,20.85.96,31.26-7.75-6.74-17.26-10.22-27.38-11.42-1.15-5.85-1.63-12.24-6.68-16.21-4.6-3.6-10.25-2.58-14.88-5.04-2.76-2-4.48-5.48-6.65-8.1.93,5.34,1.36,10.62,1.55,16.04.41,5.35,2.03,11.29,6.89,14.29,5.14,3.32,12.33,3.99,18.3,4.27,10.12.85,19.77,3.95,26.86,11.54,3.99,4.07,5.74,10.6,8.14,15.75-5.42-3.64-10.45-7.16-16.99-8.51-6.22-1.37-12.55-1.24-17.7,2.93-5.91,4.31-8.47,10.57-14.81,13.14-5.89,2.29-10.93.69-16.83-.1,4.04,2.74,8.3,5.02,13.31,5.14,4.93.09,9.45-2.12,12.74-5.71,4.24-4.46,7.85-9.22,14.23-10.63,6.67-1.51,13.96,1.91,19.58,5.26,6.33,3.73,11.09,9.18,14.28,15.76,6.44,14.78,13.77,29.6,23.37,42.6,6.39,8.68,14.82,14.45,23.42,20.66-6.56-.87-13.09-.99-19.65.1-3.74.42-7.29,1.71-11,2.27-3.01-.06-6.11-1.71-8.8-2.97-4.65-2.35-9.77-4.84-13.67-8.31-4.4-3.98-8.53-8.07-11.28-13.4,3.68-3.53,7.21-6.63,7.71-12.06.8-5.88-3.14-9.45-6.12-13.89-1.78-2.26-2.08-4.85-2.69-7.57-3.26,5.91-8.58,11.85-10.12,18.41-1.16,4.79,1.4,9.31,3.85,13.23,4.92,7.79,10.68,16.25,18.31,21.62,3.24,2.4,6.75,4.31,10.36,6.08-7.84,1.67-16.19,2.63-24.03.45-10.84-3-20.27-9.83-27.73-18.11-2.95-3.18-5.31-6.81-8.19-10.04.23,4.28,1.53,7.78,3.43,11.57-6.1-4.83-11.77-10.1-16.74-16.08-3.84-4.32-1.05-11.19-4.95-16.05-3.94-5.3-10.21-4.42-15.81-6.28-3.02-1.5-5.51-4.12-8.21-6.13,2.45,7.08.81,13.9,4.27,20.27,2.03,4.03,5.74,6.48,9.9,7.92,3.12,1.04,6.14.72,9.31,1.15.91.54,1.58,1.58,2.29,2.36,5.95,7.56,13.08,14.7,21.41,19.62,5.22,3.38,10.91,5.98,16.11,9.38-8.01-.8-15.77-2.58-23.61-4.35-5.48-1.28-11.06-1.76-16.68-1.34-1.06-4.2-2.18-8.03-5.67-10.89-4.36-3.54-10.04-3.41-15.08-1.52-4.16,1.66-8.13,3.47-12.62,4.1,6.27,5.4,10.5,13.07,17.93,16.16,5.49,2.64,11.86.56,16.86-2.25,1.92-1.2,4.16-.63,6.29-.47,10.5,1.41,20.54,4.69,31.17,5.47-4.46,2.7-8.54,5.47-11.19,10.12-3.45,5.46-4.14,11.73-3.76,18.07.09,1.44,1.07,2.67,1.73,3.91,1.8-6.88,2.91-14.92,7.38-20.71,3.92-5.27,9.9-8.12,16.21-9.37,3.67-.56,7.41-.64,11.11-1.04-3.53,2.39-6.98,4.78-9.9,7.92-4.96,5.07-7.48,10.95-11.32,16.7-2.19,3.29-5.08,5.58-7.7,8.45,4.24-1.11,8.15-2.68,11.13-6.03,5.41-6.13,8.42-13.85,15.1-18.94,6.59-5.29,14.54-7.32,22.84-7.91,6.91-.77,13.67.22,20.36,1.92,7.32,1.94,14.33,3.46,21.04,7.13-3.49.17-6.91.49-10.23,1.62-2.64.89-5.17,1.51-7.97,1.11-9.72-1.02-19.14-1.37-28.23,2.82-7.25,3.16-12.86,10.36-13.06,18.4.31,5.4,3.46,8.69,6.61,12.67,2.33,2.8,2.03,5.83,2.41,9.25,3.43-4.45,7.71-9.47,9.25-14.94,1.71-6.8-1.76-13.6-8.36-16.02.71,3.51,2.46,6.6,3.42,10.01.86,3.33-.34,6.11-1.86,8.99-2.87-3.02-6.51-6.48-6.39-10.99.29-3.65,3.13-7.11,5.27-9.96,5.89-5.55,15.29-6.15,22.95-5.83,3.88-.03,7.32,1.3,11.04,2.1,3.74-1.49,6.85-3.75,10.93-4.49,4.94-.88,10.81-.75,15.19,1.99,5.94,3.41,10.55,9.41,13.57,15.46,6.6,13.54,8.08,29.18,5.18,43.89-2.07,9.92-7.29,19.22-14.12,26.65-8.44,9.12-19.71,14.42-31.79,16.8-14.46,2.86-28.24,3.72-41.47,10.93-11.09,5.7-20.53,16.7-21.41,29.51-.4,3.4,2.1,4.44,4.25,6.37.09-6.74,1.32-13.2,5.27-18.78,6.32-9.24,15.97-14.36,26.56-17.25,10.78-3.35,21.96-3.94,32.83-6.73,13.78-3.59,26.21-11.44,34.39-23.2,7.37-10.41,11.89-22.63,12.04-35.45.47-15.05-2.97-31.12-12.13-43.36-6.55-9.25-17.24-15.51-27.81-19.11-6.77-2.49-13.75-3.42-20.7-5.15,10.81-1.74,22.35-1.64,32.95,1.24,11.04,3.94,21.16,11.23,27.27,21.36,9.5,15.38,11.26,33.4,8.73,51.01-2.25,15.84-10.58,30.74-23.15,40.67-8.39,7.33-17.94,12.58-28.11,17.01-9.88,4.34-19.25,8.32-28.03,14.82-7.04,5.36-12.35,12.71-13.97,21.53-.67,3.91-1.13,8.59.25,12.38,1.17,1.43,3.23,2.24,4.79,3.2-.53-7.04-1.21-14.54,2.09-21.05,3.85-8.18,12.01-14,19.83-18.06,9.73-5.03,19.67-8.58,29.1-13.9,7.88-4.32,15.14-9.57,21.86-15.53.68,4.91-.22,9.34-2.9,13.49-3,5.06-8.44,7.74-13.43,10.44-12.31,6.41-26.11,9.53-36.03,20.1-8.18,8.67-8.69,21.16-5.25,32.05,1.82.18,3.64.37,5.46.56-1.98-6.22-3.46-12.16-1.93-18.69,1.45-6.93,6.73-12.43,12.51-16.16,9.59-6.16,20.72-8.7,30.49-14.68-.1,3.87-.42,7.45,1.24,11.06,1.34,3.1,3.51,5.22,5.7,7.71-8.63,2.19-17.86,6.06-22.03,14.5-3.49,6.42-2.93,14.13,1.19,20.12,1.66,2.34,4.75,3.28,7.23,4.51-2.49-4.92-5.33-9.38-5.42-15.08-.22-4.26,1.66-8.12,4.61-11.1,4.08-4.21,10.01-6.83,15.64-8.21,1.73-.36,3.27-.88,4.99-.15,3.85,1.46,7.48,3.6,11.02,5.68-5.45,3.94-10.9,6.85-14.43,12.9-2.74,4.71-3.29,9.95-1.14,15.02.33,2.15,3.59,1.38,5.25,1.78-1.87-5.85-2.2-11.81,1.9-16.81,3.84-4.34,9.02-7.68,13.88-10.78,3.93,2.91,8.29,5.52,10.32,10.2,2.25,5.77,1.19,11.17-.25,16.97,1.65-.07,3.3-.14,4.94-.22,1.36-6,2.53-11.79.4-17.81-2.12-5.71-6.52-9.19-11.29-12.62,5.98-6.52,10.44-14.29,10.83-23.32,7.54,3.97,15.96,5.01,22.9,9.6,4.49,3.02,7.89,7.37,8.57,12.87,1.17,9.16-2.43,19.14-5.32,27.74,1.84-.33,3.68-.66,5.51-1.02,3.18-8.26,6.11-17.8,5.15-26.74-.72-7.74-5.83-14.48-12.55-18.16-8.05-4.4-17.18-6.28-25.28-10.72-8.86-4.6-18.49-10.92-22.91-20.22-1.65-3.77-3.65-8.68-1.58-12.63,1.25-2.67,2.62-5.27,3.69-8.03,3.72,11.11,9.94,21.16,19.17,28.52,12.46,11.07,27.75,15.55,43.49,19.79,6.29,1.83,13.84,3.51,19.02,7.63,5.04,3.74,8.44,9.52,8.75,15.84.36,5.7-1.23,10.76-3.1,16.04,1.72-.55,3.43-1.11,5.15-1.67,2.94-7.11,4.44-14.38,1.71-21.85-2.82-8.46-9.74-13.99-17.79-17.23-8.96-3.47-18.57-5.04-27.65-8.26-5.39-1.97-11.05-3.99-15.99-6.9-6.75-4.03-12.82-9.06-17.82-15.15-5.12-5.97-8.19-12.85-10.84-20.18-.83-2.14,0-3.94.58-6,.98-2.93,1.85-5.89,2.94-8.78,1.29,5.89,2.51,11.7,4.96,17.25,5.91,14.8,18.79,25.89,33.48,31.52,18.16,7.85,37.89,7.43,56.3,15.9,5.22,2.64,10.52,6.23,13.46,11.44,2.65,4.44,2.96,9.32,3.51,14.34,1.64-1.02,3.29-2.05,4.92-3.1-.88-5.27-1.53-10.45-4.54-15.02-4.1-6.52-10.75-10.6-17.62-13.68-17.27-7.53-38.32-7.89-55.67-15.4-12.05-5.01-22.92-14.43-28.4-26.4-4.99-11.2-6.51-23.73-5.53-35.89,1.41-14.78,7.43-29.71,18.21-40.15,5.21-5.33,12.43-10.32,20.21-9.93,6.85-.08,13.58,3.81,16.54,10.05.13,2.67-.89,5.38-.93,8.06.2,3.01,1.44,5.96,1.72,8.98.01,2.37-.67,4.77-1.04,7.1,4.88-2.82,9.44-5.31,12.55-10.23,2.63-3.92,2.56-9.44-.53-13.08-1.88-2.19-5.37-2.81-7.77-4.38-1.52-1.19-2.72-2.81-3.99-4.26,5.89.15,11.6,1.41,17.23,3.06,4.41,1.37,8.08,3.59,11.36,6.83-2.29,2.91-5.64,6.24-6.41,9.93-.67,4.9,1.97,8.93,4.3,12.95,1.6,2.65,1.84,5.41,2.5,8.39,3.79-6.36,10.33-11.98,9.52-20.07-1.07-7.19-4.85-15.22-11.2-19.17-5.4-3.19-11.71-4.99-17.86-6.01-5.78-1.06-11.64-.63-17.41-1.89,6.17-3.27,12.55-4,19.39-4.72,7.39-.63,15.06.55,22.43,1.55,7.67,1,16.04,4.47,21.1,10.48,4.12,5,3.83,10.5,4.5,16.57.18,2.14,1.09,3.2,2.93,4.22,4.32.67,10.08-1.21,14.03.82,4.76,2.57,5.82,10.05,7.89,14.64-4.25-.2-10.27,1.88-13.94-.61-4.62-2.95-5-8.53-6.09-13.39-1.51-.45-3.01-.88-4.52-1.3.11,4.46.53,9.6,2.58,13.64,1.82,3.59,5.23,6.07,9.08,7.07,7.3,1.39,13.4-2.46,20.64.02-3.89-7-4.75-16.84-10.29-22.49-5.17-4.97-11.33-4.33-17.76-2.62.17-6.36-.21-12.38-3.64-17.92-2.18-3.98-5.61-6.34-9.18-8.94,13.82-.62,27.8-.07,40.29-7.1,5.52-3.02,9.18-8.33,14.48-11.51,6.85-3.67,15.1-.85,21.76,1.9-2.48-2.68-4.93-5.18-8.34-6.66ZM342.45,186.07c-1.7-2.81-4.89-5.64-3.67-9.24,1.38-3.65,5.19-5.43,8.54-6.84.54,2.16,1.55,4.71,1.16,6.94-.78,3.5-3.76,6.48-6.03,9.14ZM225.89,62.86c.14-2.37,1.08-4.33,2.05-6.45l.21-.44c1.05,3.16,2.05,6.32,2.75,9.58-1.92-.65-3.72-.96-5.01-2.69ZM181.03,43.85c-3.86-3.8-7.27-8.21-6.11-13.99,1.2-3.79,5.36-6.75,8.12-9.47,1.26,3.47,2.44,6.73,2.25,10.5-.21,4.78-2.07,8.81-4.26,12.96ZM138.71,19.67c2.39-4.26,6.4-6.28,10.71-8.12.01,3.34.36,7.41-1.2,10.45-2.31,4.2-6.43,6.34-10.43,8.6.23-3.49-.38-7.64.92-10.93ZM50.88,98.18c-4.03-3.21-4.27-7.65-4.94-12.37,4.31.63,9.93.77,13.12,4.1,2.75,2.83,2.86,7.74,3.52,11.41-3.71-.82-8.48-.97-11.7-3.14ZM87.96,188.53c-1.61-2.46-3.21-4.6-3.49-7.64-.58-3.95,1.79-7.75,4.16-10.69,1.65-.34,2.2.92,3.19,1.95,1.78,2.14,2.87,4.98,2.64,7.78-.67,3.88-3.64,6.26-6.5,8.6ZM23,178.99c-2.82-1.78-4.39-4.49-5.45-7.57-.4-1.12-.78-2.25-1.16-3.38,4.2.99,8.65,1.5,12.71,2.96,3.33,1.51,3.28,7.03,3.73,10.09-3.56-.2-6.74.02-9.83-2.1ZM20.28,215.45c-4.21-1.43-7.95-5.18-9.99-9.06,3.24-2.24,7.92-3.32,11.77-2.5,4.91,1.38,7.09,6.11,9.73,10.01-3.55.76-7.94,2.55-11.51,1.55ZM197.6,353.35c3.7,3.49,8.27,5.7,12.11,8.91,2.29,1.8,2.52,4.9,2.47,7.59-.31,6.76-4.35,12.61-9.09,17.13-3.58-.96-6.91-3.15-10.2-4.83-4.82-2.67-10.41-5.86-13.14-10.84-1.59-2.63-1.53-6-1-8.93.72-3.67,3.35-6.44,5.47-9.38,2.24-2.92,3.81-6.12,5.57-9.33l.12-.15.1-.12c2.21,3.61,4.4,7.09,7.59,9.95ZM270.71,245.49c1.34,1.48,3.03,3.21,2.39,5.39-.37,2.48-2.27,3.84-3.93,5.5-.75-4.07-1-8.29-1.44-12.43,1,.5,2,1.01,2.98,1.54ZM294.85,248.22c2.84,5.09,3.07,10.9-.55,15.67-1.67-2.56-4.07-5.81-4.07-8.98.12-2.63,2.85-4.98,4.62-6.69ZM252.13,222.28c-8.24,2.53-16.11,5.34-22.99,10.69-12.19,8.66-18.51,21.36-23.5,35.04-1.14-5.15-2.03-10.03-.53-15.24,3.24-11.36,11.26-21.7,21.77-27.2,11.95-5.66,25.73-7.59,38.83-6.14-4.49,1.13-9.12,1.46-13.58,2.85Z"/>
      <path class="cls-8" d="M245.89,46.08c2.84,2.68,7,5.17,11.05,4.52,2.93-1.85,4.98-5.4,6.32-8.52,1.61-4.42,2.35-9.75-.49-13.85-3.33-5.33-9.15-7.43-12.5-12.47-1.74-2.65-3.27-5.39-5.32-7.84.36,2.66.93,5.29.68,7.98-.65,5.76-3.76,10.91-4.55,16.78-.79,4.94,1.09,10.07,4.81,13.4ZM248.71,24.69c.3-.73.61-1.45.93-2.16,3.5,2.91,9.08,6.45,9.71,11.32.41,3.94-.97,8.26-2.73,11.78-2.19.53-3.72-.66-5.33-1.94-2.28-1.99-4.5-4.68-4.82-7.8-.46-3.71.97-7.74,2.24-11.2Z"/>
      <path class="cls-7" d="M207.71,59.45c3.89-5.35,8.24-11.84,8.94-18.56.48-4.25-.96-7.92-1.77-11.98-.8-3.63.44-7.87.97-11.53-3.79,3.64-7.35,7.53-10.88,11.42-4.32,4.82-7.32,10.42-6.23,17.12.87,5.99,4.61,9.76,8.97,13.53ZM203.41,42.88c.39-4.98,3.16-8.49,6.4-12.01.86,3.16,1.94,6.75,1.67,10.03-.5,4.21-2.72,8.34-5.04,11.82-1.67-3.24-3.45-6-3.03-9.84Z"/>
      <path class="cls-6" d="M91.15,68.53c-1.4-4.66-5.67-6.7-7.69-10.81-2.15-5.09.79-11.67,2.21-16.69,3.64,2.91,8.99,5.52,9.24,10.82.09,6.03-3.46,11.31-3.17,17.5,4.24-3.72,7.1-8.95,8.26-14.44.67-3.29.49-6.63-1.46-9.47-2.58-3.8-6.96-5.71-10.25-8.76-2.38-2.32-4.03-5.43-6.21-7.97-.21,3.5.06,6.75-1.03,10.15-1.76,6.3-5,12.35-3.16,19.07,1.8,6.11,7.2,9.59,13.26,10.6Z"/>
      <path class="cls-3" d="M122.85,60.21c2.35,1.82,5,1.21,7.74,1.12,1.08,1,2.16,1.99,3.28,2.94-.65-1.54-1.1-3.61-2.33-4.8-2.22-1.42-5.37-1.94-6.95-4.08-2.34-2.93-2.06-6.14-2.41-9.68,2.95,4.28,5.99,8.39,9.96,11.79.04-7.48-5.27-11.67-6.75-18.62-.7-2.82-.28-5.42-.09-8.25-3.24,4.32-5.9,8.82-6.62,14.28-1.16,5.63-.42,11.42,4.17,15.3Z"/>
      <path class="cls-4" d="M295.53,59.33c1.56-3.09,4.55-5.68,7.05-8.01,1.68,2.95,3.52,6.01,2.28,9.51-2.74,5.51-9.39,5.31-11.44,11.18,3.59-.52,7.56-1.18,10.78-2.96,4.71-2.72,7.5-8.99,5.29-14.18-1.93-4.78-4.47-9.07-5.26-14.28-3.43,6.68-10.26,10.45-13.38,17.1-1.77,4.53.03,8.05,2.88,11.51.57-3.19.42-6.92,1.8-9.87Z"/>
      <path class="cls-2" d="M160.17,70.95c3.21-3.47,3.35-8.54,4.4-12.9.71-3.36,3.53-6.33,5.48-9.11-6.18,1.17-13.29,3.56-17.73,8.21-3.6,3.85-3.78,8.6-3.18,13.57.53.54.98,1.13,1.35,1.76l-.97,2.82c4.05-.43,7.79-1.23,10.65-4.35ZM154.27,62.05c1.32-2.49,3.55-3.33,5.92-4.54-1.18,5.69-3.1,10.43-8.12,13.78-.37-.34-.64-.73-.82-1.17.65-2.75,1.78-5.52,3.02-8.07Z"/>
      <path class="cls-1" d="M280.2,91.92c-1.95-2.84-4.68-5.87-5.66-9.22-.58-2.3.16-4.37,1.04-6.46,1.45,4.61,2.31,9.08,5.2,13.08,1.48-5.13.45-9.74-1.2-14.64-1.52-4.23-.77-8.14.1-12.37-3.69,3.68-7.2,6.97-8.82,12.09-1.64,4.6-1.58,9.62.91,13.9,1.98,2.9,5.32,2.86,8.43,3.62Z"/>
      <path class="cls-5" d="M339.67,95.47c4.22-4.19,3.46-10.16,3.47-15.59-.17-3.05.59-5.84,1.51-8.71-3.58,2.53-6.89,5.3-10.78,7.36-4.63,2.49-9.08,5.8-11.03,10.87-1.13,3.55-1.7,7.31-2.49,10.95,6.76.26,14.12.12,19.32-4.88ZM330.56,86.38c2.36-2.12,5.08-3.06,7.96-4.22-.44,3.47.19,8.74-3.42,10.69-3.4,1.8-7.45,2.25-11.04,3.67,1.9-3.57,3.43-7.39,6.5-10.14Z"/>
      <path class="cls-10" d="M105.15,99.05c-.99.87-1.8,1.99-2.64,3.01,4.68.34,9.04,1.42,13.06-1.67,4.84-3.36,4.45-9.86,6.02-14.97-4.47.76-9.35.12-13.66,1.4-3.44,1.32-3.62,4.19-4.54,7.31,4.38-1.97,8.53-3.41,13.43-3.13-.79,1.57-1.38,3.68-2.74,4.86-2.61,1.7-6.24,1.79-8.93,3.19Z"/>
      <path class="cls-11" d="M194.57,100.41c-4.26-3.37-10.52-3.14-14.71.25-3.54,2.92-6.66,6.24-10.49,8.83,6.55,2.88,13.46,8.42,20.77,8.5,5.45-.81,7.94-4.99,9.66-9.76-1.44-2.98-2.43-5.79-5.23-7.82ZM198.16,110.06c-3.94,1.16-7.83,3.44-12.07,2.62-2.75-.63-5.36-2.32-7.83-3.64,2.42-2.6,5.24-5.6,8.77-6.6,2.52-.11,4.76,1.3,6.72,2.72,1.85,1.52,3.75,2.45,4.41,4.9Z"/>
      <path class="cls-12" d="M342.51,126.43c2.21,3.69,7.16,4.57,11.03,5.39,5.64,1.11,10.22-2.1,15.53-3.24,3.49-.82,7.47.99,10.82,1.9-2.5-3.87-4.87-8-7.95-11.46-7.65-7.57-21.91-8.29-29.47-.17-.25,2.51-1.7,5.35.04,7.58ZM358.1,118.21c4.31.13,7.94,2.02,11.31,4.57-5.15.45-9.36,3.47-14.33,4.22-4.28-.66-8.01-3.87-12.18-5.21-.18-.44-.36-.87-.54-1.31,5.17-.71,10.53-2.36,15.74-2.27Z"/>
      <path class="cls-13" d="M39.08,136.37c4.86.03,9.27-2.62,11.93-6.61,1.72-2.36,1.88-4.86,2.6-7.6-2.59-2.61-4.75-5.14-8.38-6.34-6.48-2.07-13.03-.23-18.33,3.75-4.08,3.17-8.45,5.91-12.53,9.07,3.52.82,6.88,1.3,10.16,2.94,4.74,2.32,9.05,4.93,14.55,4.79ZM34.56,121.47c5.97-2.57,11.53-.62,17.01,2.06.89,1.04-.6,1.7-1.27,2.26-3.08,1.95-6.52,4.75-10.17,5.32-5.02.68-9.57-1.94-13.81-4.24,2.01-2.51,5.33-4.15,8.24-5.4Z"/>
      <path class="cls-15" d="M162.52,143.29c-2.39,1.58-5.13,2.64-7.66,3.99,3.62,1.23,7.16,2.35,10.65.04,4.43-3.02,5.36-7.98,7.3-12.63,1.17-3.23,3.34-5.45,5.39-8.11-3.99,1.65-7.8,3.45-12.11,4.15-3.41.78-7.79,1.1-10.19,3.97-2.57,3.16-2.56,6.68-2.47,10.56,2.64-1.38,3.96-3.27,5.49-5.73,1.94-3.32,6.49-3.37,9.8-4.26-1.72,2.71-3.5,6.17-6.2,8.02Z"/>
      <path class="cls-22" d="M355.13,146.66c4.29-.93,7.47-3.31,11.18-5.43,3.27-2.14,7.71-.95,11.38-.68-2.83-2.72-5.39-5.18-9.61-5.18-5.09-.18-9.09,5.61-13.99,6.42-1.97.19-4.05.11-5.65-1.21-2.92-2.27-3.45-6.82-5.95-9.1-1.24-1.19-2.72-1.34-4.33-1.59.61,4.1,2.43,8.75,4.66,12.24,2.6,4.02,7.74,5.82,12.31,4.53Z"/>
      <path class="cls-23" d="M234.03,139.87c2.9,1.39,5.24,3.66,8.22,4.95-1.55-4.29-3.45-8.41-8.15-9.85-4.91-1.53-10.32,1.97-14.94,3.46,3.29,2.91,5.7,6.54,8.76,9.64,3.45,3.78,10,3.44,13.77.4,1.11-1.87-.36-2.87-1.15-4.48-2.2.8-4.2,1.7-6.54,2.02-3.14-.04-5.04-3.46-6.73-5.63,2.35-.75,4.32-1.6,6.76-.51Z"/>
      <path class="cls-24" d="M74.07,139.68c-4.24,1.82-6.77,7.53-8.6,11.47,3.6.09,7.54.77,11.07.02,3.41-1.38,5.84-4.43,7.21-7.77-4.32,1.46-7.42,4-12.29,3.25,2.93-2.29,6.3-3.67,9.37-5.75-2.41-.9-4.13-2.35-6.76-1.22Z"/>
      <path class="cls-25" d="M330.28,158.11c2.79-.9,5.33-.23,8.15.04-2.96-5.17-6.11-11.11-10.66-15.02-3.96-3.08-10.2-4.83-14.88-2.41-3.35,1.53-4.47,5.25-6.27,8.2,2.63,3.83,5.79,8.16,9.84,10.56,4.15,2.03,9.69-.17,13.82-1.37ZM307.95,147.27c3.36-.8,6.7-2.37,10.14-2.7,5.26.26,8.02,4.1,11.24,7.66-3.3,1.72-8.07,3.65-11.71,2.02-3.21-2.58-5.63-5.52-9.67-6.98Z"/>
      <path class="cls-14" d="M191.11,143.74c-5.2-1.37-9.48.5-14.23,2.27,2.6,2.17,5.02,4.38,6.79,7.32,1.84,2.58,3.82,6.6,7.36,6.91,5.06.44,8.24-2.93,10.88-6.73-3.66.12-7.27,1.74-10.88,1.58-2.96-.75-3.89-4.62-5.18-7.03,6.11-.22,9.99,3.38,15.58,4.88-2.16-4.41-5.43-7.97-10.32-9.2Z"/>
      <path class="cls-17" d="M311.13,177.85c2.03-3.56,2.51-8.65.19-12.2-1.96-3.19-5.05-6.03-8.34-7.8-3.49-1.72-7.4-2.55-11.03-3.97.25.93.5,1.87.75,2.81,1.49,5.6.07,10.32,3.02,15.43,2.6,5.36,9.99,8.12,15.41,5.73ZM300.52,170.4c-1.96-2.68-2.21-6.77-2.89-9.94,2.97,2.13,6.48,4.22,8.77,7.11,2.28,2.86,2.52,6.27,3.27,9.73-3.07-2.08-7.04-3.8-9.15-6.9Z"/>
      <path class="cls-16" d="M59.57,191.11c2.41-3.67,5.46-7.6,5.3-12.22-.23-5.54-3.84-9.55-7.77-13.03-2.69-2.31-4.49-4.88-6.09-8.02-2.82,6.46-6.8,14.99-5.06,22.09,2.12,6.32,8.02,8.71,13.62,11.18ZM52.34,168.84c3.33,1.57,6.31,4.62,7.31,8.22.79,3.32-.31,7.22-.74,10.57-2.67-2.77-5.99-5.14-8.24-8.25-1.66-3.1.27-7.61,1.67-10.54Z"/>
      <path class="cls-18" d="M216.08,163.3c-5.06.55-8.61,3.21-12.78,5.78-2.71,1.76-5.67,2.12-8.8,2.56,3.78,3.26,7.14,6.43,12.05,7.93,5.76,1.87,11.47.18,16.55-2.68,4.28-2.41,7.17-5.77,10.91-8.87-5.96-2.57-11.14-5.58-17.93-4.72ZM213.11,175.04c-2.96.57-5.5-.65-8.23-1.59,3.58-2.45,7.41-4.84,11.78-5.45,4.17-.63,8.77.82,13.01,1.19-5.92,1.13-10.71,4.74-16.56,5.85Z"/>
      <path class="cls-19" d="M171.31,171.12c3.3-1.77,8.25-1.48,10.53-4.52.68-.78,1.33-1.57,1.96-2.39-4.75.08-10.63.02-14.85,2.51-4.21,2.35-6.16,7.71-3.81,12.08-.58,1.05-1.17,2.1-1.75,3.16,2.37,1.24,4.99,2.8,7.65,3.3,3.55.45,7.26-1.21,9.14-4.3,1.66-2.62,1.44-5.54,1.53-8.52-3.17,2.68-5.18,6.19-8.65,8.17-2.32-.87-4.39-2.51-6.51-3.78,1.31-2.32,2.19-4.52,4.76-5.71Z"/>
      <path class="cls-27" d="M293.05,189.98c-3.2-1.87-6.1-3.83-8.84-6.34.75,4.01.81,8.07,1.26,12.12.1,1.66,1.79,2.58,2.86,3.7.12-2.11.21-4.21.34-6.31,4.76,2.53,5.51,7.1,8.89,10.85,2.2-5.4.31-10.91-4.51-14.02Z"/>
      <path class="cls-21" d="M117.07,185.99c-3.35,2.51-7.73,5.29-9.71,9.06-1.48,3.52,1.25,6.38,2.97,9.18,2.5-.94,6.42-1.86,7.75-4.41.76-2.75-.16-6.09-.1-8.94.25-2.28,1.09-4.58,1.71-6.78-.88.63-1.75,1.26-2.62,1.89ZM113.54,202.28c-3.12-2.29-2.82-6.09.16-8.35.37,2.79.19,5.57-.16,8.35Z"/>
      <path class="cls-28" d="M363.2,229.75c-1.3-2.39-2.36-4.91-3.69-7.29-.33,3.45-.46,6.76-2.01,9.94-2.1,5.19-5.62,10.61-3.21,16.34,2.59,5.83,9.35,10.16,14.35,13.75.93-7.21,6.35-12.88,4.87-19.65-1.44-6.03-7.44-8.03-10.31-13.09ZM366.4,253.89c-2.86-1.58-5.49-4.21-6.89-7.18-1.55-3.78-.08-7.54,2.05-10.73,2.84,1.55,5.59,4.43,6.87,7.41.93,3.33-.65,7.47-2.03,10.5Z"/>
      <path class="cls-26" d="M34.63,225.91c-2.67,3.37-5.4,6.1-8.79,8.75-3.49,2.85-6.5,6.44-5.91,11.26.77,4.13,2.35,8.01,2.79,12.23,5.25-2.69,12.06-6.23,14.8-11.74,1.85-4.15.12-7.59-1.43-11.42-1.32-2.95-1.31-5.92-1.46-9.08ZM32.79,244.68c-1.41,3.02-4.06,4.56-6.95,5.93-.47-2.4-1.43-5.29-.84-7.7,1.2-3.59,4.54-5.23,7.63-6.9.63,2.99,1.37,5.7.16,8.67Z"/>
      <path class="cls-20" d="M138.48,242.84c-2.97-.4-6.51-1.6-9.31.03-2.39,1.6-4.19,4.26-4.94,7.03-.62,2.8-.37,5.87-.39,8.73,3.79-.22,7.19-.13,10.2-2.81,3.72-3.01,5.08-7.16,5.98-11.69-4.81,2.75-7.79,7.4-12.52,10.26.98-2.5,1.91-5.37,3.62-7.47,2.12-1.76,4.95-2.77,7.36-4.08Z"/>
      <path class="cls-29" d="M50.95,265.86c-1.87,2.85-4.72,3.48-7.71,4.66.48-3.79,1.06-7.7,4.3-10.18,2.77-1.76,6.03-2.49,8.73-4.42-4.76-1.27-9.37-1.71-13.14,2.03-5.28,4.93-3.59,12.11-4.78,18.67,5.51-.58,10.6-1.81,14.71-5.76,3.93-3.74,4.63-8.7,5.01-13.85-3.48,2.22-4.99,5.51-7.12,8.85Z"/>
    </g>
  </g>
</svg>